REM DIRINDEX 1\2,1\3,1\4,1\5
REM DIRNAME folder01,folder02,folder03,folder04,folder05
TITLE ""
FILE "1800_132.mp3" MP3
  TRACK 01 AUDIO
    TITLE "2:cjc044_3929"
    INDEX 01 00:00:00
  TRACK 02 AUDIO
    TITLE "0:"
    INDEX 01 00:00:74
  TRACK 03 AUDIO
    TITLE "3:cjc044_3930"
    INDEX 01 00:01:56
  TRACK 04 AUDIO
    TITLE "0:"
    INDEX 01 00:03:08
  TRACK 05 AUDIO
    TITLE "4:cjc044_3931"
    INDEX 01 00:03:66
  TRACK 06 AUDIO
    TITLE "0:"
    INDEX 01 00:04:74
  TRACK 07 AUDIO
    TITLE "5:cjc044_3932"
    INDEX 01 00:05:52
  TRACK 08 AUDIO
    TITLE "0:"
    INDEX 01 00:08:44
  TRACK 09 AUDIO
    TITLE "2:cjc044_3933"
    INDEX 01 00:10:35
  TRACK 10 AUDIO
    TITLE "0:"
    INDEX 01 00:11:64
  TRACK 11 AUDIO
    TITLE "3:cjc044_3934"
    INDEX 01 00:12:46
  TRACK 12 AUDIO
    TITLE "0:"
    INDEX 01 00:14:04
  TRACK 13 AUDIO
    TITLE "4:cjc044_3935"
    INDEX 01 00:14:64
  TRACK 14 AUDIO
    TITLE "0:"
    INDEX 01 00:16:20
  TRACK 15 AUDIO
    TITLE "5:cjc044_3936"
    INDEX 01 00:17:02
  TRACK 16 AUDIO
    TITLE "0:"
    INDEX 01 00:20:32
  TRACK 17 AUDIO
    TITLE "2:cjc044_3937"
    INDEX 01 00:22:21
  TRACK 18 AUDIO
    TITLE "0:"
    INDEX 01 00:23:26
  TRACK 19 AUDIO
    TITLE "3:cjc044_3938"
    INDEX 01 00:24:10
  TRACK 20 AUDIO
    TITLE "0:"
    INDEX 01 00:25:29
  TRACK 21 AUDIO
    TITLE "4:cjc044_3939"
    INDEX 01 00:26:11
  TRACK 22 AUDIO
    TITLE "0:"
    INDEX 01 00:27:16
  TRACK 23 AUDIO
    TITLE "5:cjc044_3940"
    INDEX 01 00:27:73
  TRACK 24 AUDIO
    TITLE "0:"
    INDEX 01 00:30:50
  TRACK 25 AUDIO
    TITLE "2:cjc044_3941"
    INDEX 01 00:32:39
  TRACK 26 AUDIO
    TITLE "0:"
    INDEX 01 00:33:56
  TRACK 27 AUDIO
    TITLE "3:cjc044_3942"
    INDEX 01 00:34:42
  TRACK 28 AUDIO
    TITLE "0:"
    INDEX 01 00:36:11
  TRACK 29 AUDIO
    TITLE "4:cjc044_3943"
    INDEX 01 00:37:01
  TRACK 30 AUDIO
    TITLE "0:"
    INDEX 01 00:38:20
  TRACK 31 AUDIO
    TITLE "5:cjc044_3944"
    INDEX 01 00:38:71
  TRACK 32 AUDIO
    TITLE "0:"
    INDEX 01 00:42:14
  TRACK 33 AUDIO
    TITLE "2:cjc044_3945"
    INDEX 01 00:44:07
  TRACK 34 AUDIO
    TITLE "0:"
    INDEX 01 00:45:20
  TRACK 35 AUDIO
    TITLE "3:cjc044_3946"
    INDEX 01 00:46:07
  TRACK 36 AUDIO
    TITLE "0:"
    INDEX 01 00:47:44
  TRACK 37 AUDIO
    TITLE "4:cjc044_3947"
    INDEX 01 00:48:26
  TRACK 38 AUDIO
    TITLE "0:"
    INDEX 01 00:49:41
  TRACK 39 AUDIO
    TITLE "5:cjc044_3948"
    INDEX 01 00:50:29
  TRACK 40 AUDIO
    TITLE "0:"
    INDEX 01 00:53:23
  TRACK 41 AUDIO
    TITLE "2:cjc044_3949"
    INDEX 01 00:55:12
  TRACK 42 AUDIO
    TITLE "0:"
    INDEX 01 00:56:20
  TRACK 43 AUDIO
    TITLE "3:cjc044_3950"
    INDEX 01 00:57:05
  TRACK 44 AUDIO
    TITLE "0:"
    INDEX 01 00:58:11
  TRACK 45 AUDIO
    TITLE "4:cjc044_3951"
    INDEX 01 00:58:69
  TRACK 46 AUDIO
    TITLE "0:"
    INDEX 01 01:00:08
  TRACK 47 AUDIO
    TITLE "5:cjc044_3952"
    INDEX 01 01:00:60
  TRACK 48 AUDIO
    TITLE "0:"
    INDEX 01 01:04:09
  TRACK 49 AUDIO
    TITLE "2:cjc044_3953"
    INDEX 01 01:05:68
  TRACK 50 AUDIO
    TITLE "0:"
    INDEX 01 01:06:67
  TRACK 51 AUDIO
    TITLE "3:cjc044_3954"
    INDEX 01 01:07:51
  TRACK 52 AUDIO
    TITLE "0:"
    INDEX 01 01:08:64
  TRACK 53 AUDIO
    TITLE "4:cjc044_3955"
    INDEX 01 01:09:46
  TRACK 54 AUDIO
    TITLE "0:"
    INDEX 01 01:10:45
  TRACK 55 AUDIO
    TITLE "5:cjc044_3956"
    INDEX 01 01:11:29
  TRACK 56 AUDIO
    TITLE "0:"
    INDEX 01 01:15:01
  TRACK 57 AUDIO
    TITLE "2:cjc044_3957"
    INDEX 01 01:16:60
  TRACK 58 AUDIO
    TITLE "0:"
    INDEX 01 01:18:02
  TRACK 59 AUDIO
    TITLE "3:cjc044_3958"
    INDEX 01 01:18:60
  TRACK 60 AUDIO
    TITLE "0:"
    INDEX 01 01:20:08
  TRACK 61 AUDIO
    TITLE "4:cjc044_3959"
    INDEX 01 01:20:67
  TRACK 62 AUDIO
    TITLE "0:"
    INDEX 01 01:22:09
  TRACK 63 AUDIO
    TITLE "5:cjc044_3960"
    INDEX 01 01:22:70
  TRACK 64 AUDIO
    TITLE "0:"
    INDEX 01 01:25:74
  TRACK 65 AUDIO
    TITLE "2:cjc044_3961"
    INDEX 01 01:27:59
  TRACK 66 AUDIO
    TITLE "0:"
    INDEX 01 01:28:72
  TRACK 67 AUDIO
    TITLE "3:cjc044_3962"
    INDEX 01 01:29:58
  TRACK 68 AUDIO
    TITLE "0:"
    INDEX 01 01:30:56
  TRACK 69 AUDIO
    TITLE "4:cjc044_3963"
    INDEX 01 01:31:39
  TRACK 70 AUDIO
    TITLE "0:"
    INDEX 01 01:32:53
  TRACK 71 AUDIO
    TITLE "5:cjc044_3964"
    INDEX 01 01:33:38
  TRACK 72 AUDIO
    TITLE "0:"
    INDEX 01 01:36:07
